<svg width="360" height="40" xmlns="http://www.w3.org/2000/svg">
 <g>
  <g stroke="null">
   <path stroke="null" d="m18.03399,3.67422c-4.62358,0 -8.40652,3.78293 -8.40652,8.40652l0,3.36261l3.36261,0l0,-3.36261c0,-2.77415 2.26976,-5.04391 5.04391,-5.04391s5.04391,2.26976 5.04391,5.04391l3.36261,0c0,-4.62358 -3.78293,-8.40652 -8.40652,-8.40652z" fill="#424242"/>
   <path stroke="null" d="m28.12181,37.30028l-20.17564,0c-1.84943,0 -3.36261,-1.51317 -3.36261,-3.36261l0,-15.13173c0,-1.84943 1.51317,-3.36261 3.36261,-3.36261l20.17564,0c1.84943,0 3.36261,1.51317 3.36261,3.36261l0,15.13173c0,1.84943 -1.51317,3.36261 -3.36261,3.36261z" fill="#FB8C00"/>
   <circle stroke="null" r="2.52195" cy="26.37181" cx="18.03399" fill="#C76E00"/>
  </g>
  <g stroke="null">
   <g stroke="#000" fill="#000" stroke-width="0" font-size="9pt" fill-rule="evenodd" stroke-linecap="round" id="svg_3">
    <path stroke="null" vector-effect="non-scaling-stroke" d="m133.75005,4.13947l-3.16976,14.92226l0.34136,0a12.22943,12.22943 0 0 1 1.55465,-1.3074a14.29075,14.29075 0 0 1 0.59104,-0.39939q1.02408,-0.68272 2.43828,-1.21914q1.4142,-0.53642 3.16976,-0.53642a8.18091,8.18091 0 0 1 1.89844,0.2092a5.91039,5.91039 0 0 1 2.2954,1.08308a4.15385,4.15385 0 0 1 1.63657,3.03956a5.66071,5.66071 0 0 1 0.02146,0.49595a7.58207,7.58207 0 0 1 -0.03219,0.67735q-0.03657,0.40524 -0.11411,0.85876q-0.1463,0.8534 -0.34136,1.80433q-0.19506,0.95093 -0.41451,1.90186q-0.21945,0.95093 -0.36574,1.73118l-2.04815,9.50929l-9.89941,0l2.68211,-12.72781q0.09753,-0.63395 0.24383,-1.29229a6.6682,6.6682 0 0 0 0.10485,-0.59055q0.04145,-0.31941 0.04145,-0.60421a2.39439,2.39439 0 0 0 -0.05364,-0.52082q-0.08583,-0.38476 -0.30869,-0.66955a1.52734,1.52734 0 0 0 -0.00341,-0.00439a1.1733,1.1733 0 0 0 -0.67589,-0.41792a1.8448,1.8448 0 0 0 -0.42133,-0.04535a2.50119,2.50119 0 0 0 -1.22402,0.3277a3.38969,3.38969 0 0 0 -0.4584,0.30625a15.46746,15.46746 0 0 0 -0.51009,0.41841q-0.22286,0.19165 -0.40622,0.3672a6.38536,6.38536 0 0 0 -0.32722,0.33599l-3.21853,15.11732l-9.94818,0l6.92471,-32.77046l9.99694,0zm51.59397,14.92226l0.29259,0q1.02408,-0.97531 2.29198,-1.80433q1.12161,-0.68272 2.63334,-1.2679a8.66954,8.66954 0 0 1 2.21249,-0.52521a10.77719,10.77719 0 0 1 1.15233,-0.05998a8.18091,8.18091 0 0 1 1.89844,0.2092a5.91039,5.91039 0 0 1 2.2954,1.08308a4.15385,4.15385 0 0 1 1.63657,3.03956a5.66071,5.66071 0 0 1 0.02146,0.49595a6.9174,6.9174 0 0 1 -0.02048,0.51301q-0.03414,0.45937 -0.12582,1.0231a50.53283,50.53283 0 0 1 -0.24675,1.39421a57.31319,57.31319 0 0 1 -0.09461,0.48327q-0.19506,0.97531 -0.41451,1.97501a73.7784,73.7784 0 0 0 -0.17799,0.83292q-0.079,0.38086 -0.14532,0.72319a42.55283,42.55283 0 0 0 -0.04243,0.22383l-2.04815,9.50929l-9.89941,0l2.68211,-12.72781q0.09753,-0.63395 0.24383,-1.29229a6.6682,6.6682 0 0 0 0.10485,-0.59055q0.04145,-0.31941 0.04145,-0.60421a2.39439,2.39439 0 0 0 -0.05364,-0.52082q-0.08583,-0.38476 -0.30869,-0.66955a1.52734,1.52734 0 0 0 -0.00341,-0.00439a1.1733,1.1733 0 0 0 -0.67589,-0.41792a1.8448,1.8448 0 0 0 -0.42133,-0.04535a2.50119,2.50119 0 0 0 -1.22402,0.3277a3.38969,3.38969 0 0 0 -0.4584,0.30625a23.64691,23.64691 0 0 0 -0.46717,0.37696q-0.44328,0.36818 -0.73538,0.65541a6.67015,6.67015 0 0 0 -0.04096,0.04048l-3.21853,15.16609l-9.94818,0l4.43767,-20.96919l7.94879,0l0.87778,3.121zm-100.74966,12.04509l3.26729,-15.16609l9.94818,0l-4.48643,20.96919l-7.90002,0l-0.87778,-3.121l-0.29259,0a8.57786,8.57786 0 0 1 -1.76775,1.57659a11.61206,11.61206 0 0 1 -1.67022,0.93484a10.84302,10.84302 0 0 1 -2.85864,0.88168a9.6824,9.6824 0 0 1 -1.50588,0.11801a9.2718,9.2718 0 0 1 -1.85212,-0.17361q-1.64047,-0.33453 -2.73185,-1.31374a4.90484,4.90484 0 0 1 -1.65169,-3.58183a6.65211,6.65211 0 0 1 -0.00634,-0.29503q0,-0.82853 0.19165,-1.93892a21.77139,21.77139 0 0 1 0.22286,-1.10893q0.41451,-1.82871 0.75587,-3.43797l2.04815,-9.50929l9.89941,0l-2.43828,11.41114q-0.06681,0.26821 -0.13411,0.60567a20.01339,20.01339 0 0 0 -0.06096,0.32088q-0.09753,0.53642 -0.19506,1.04846q-0.09753,0.51204 -0.17068,0.97531a8.00389,8.00389 0 0 0 -0.03852,0.27309q-0.03365,0.2726 -0.03462,0.46961a2.38756,2.38756 0 0 0 0,0.01317q0,0.73148 0.31698,1.24352q0.28089,0.45352 0.96312,0.50521a2.41536,2.41536 0 0 0 0.18287,0.00683a2.62944,2.62944 0 0 0 1.38689,-0.40134a3.37068,3.37068 0 0 0 0.27114,-0.18385a9.59804,9.59804 0 0 0 0.5374,-0.43206q0.40768,-0.35404 0.68174,-0.68955zm-20.33524,-25.16303l3.36482,30.96613l-11.41114,0l-0.68272,-7.75372l-9.02163,0l-3.46236,7.75372l-4.73026,0l14.38584,-30.96613l11.55744,0zm193.11163,22.91982l-1.4142,6.87594q-2.04815,0.82901 -4.31575,1.19476a27.37309,27.37309 0 0 1 -2.37976,0.27162q-1.22255,0.08827 -2.58311,0.09363a44.8058,44.8058 0 0 1 -0.1819,0.00049a21.93573,21.93573 0 0 1 -2.72161,-0.1619a17.50489,17.50489 0 0 1 -1.93551,-0.35014a11.39944,11.39944 0 0 1 -2.20908,-0.76903a9.4298,9.4298 0 0 1 -1.47272,-0.86461q-1.5605,-1.12161 -2.43828,-2.90155a8.10923,8.10923 0 0 1 -0.67199,-2.03645q-0.17946,-0.91777 -0.20238,-1.97013a14.25515,14.25515 0 0 1 -0.00341,-0.30917a13.53196,13.53196 0 0 1 0.49692,-3.70716a12.3055,12.3055 0 0 1 0.40524,-1.19378q0.90216,-2.2676 2.73087,-3.97439a11.53452,11.53452 0 0 1 2.52411,-1.76873a15.31726,15.31726 0 0 1 2.13301,-0.91338a16.74756,16.74756 0 0 1 2.88741,-0.70027q1.43078,-0.22237 3.06004,-0.2648a29.92645,29.92645 0 0 1 0.7822,-0.01024q2.71185,0 4.81657,0.37452a18.05935,18.05935 0 0 1 0.69393,0.13752q2.34075,0.51204 3.85248,2.31636l-1.36544,6.24199l-6.63212,0q0.04194,-0.71246 0.08388,-1.28058a57.58092,57.58092 0 0 1 0.01365,-0.18238q0.04877,-0.63395 0.04877,-1.4142q0,-1.21865 -0.20823,-1.88674a2.03889,2.03889 0 0 0 -0.13313,-0.33209q-0.29454,-0.56812 -0.91582,-0.64614a1.65364,1.65364 0 0 0 -0.20579,-0.01219a2.66211,2.66211 0 0 0 -1.74678,0.65931a4.21432,4.21432 0 0 0 -0.64273,0.68174a10.46363,10.46363 0 0 0 -1.08698,1.78141a13.49831,13.49831 0 0 0 -0.59543,1.43712q-0.65834,1.87747 -0.97531,3.95001q-0.31698,2.07254 -0.31698,3.5355q0,0.53642 0.04877,1.09723q0.04877,0.5608 0.21945,1.04846a2.49387,2.49387 0 0 0 0.17117,0.38622q0.1263,0.22822 0.29211,0.39403a0.95239,0.95239 0 0 0 0.43158,0.24383q0.17848,0.04877 0.39744,0.04877a1.98281,1.98281 0 0 0 0.42036,-0.04828q0.20286,-0.04389 0.42621,-0.12874a4.21822,4.21822 0 0 0 0.27504,-0.11557a3.59939,3.59939 0 0 0 0.69784,-0.42962a4.83852,4.83852 0 0 0 0.5213,-0.47254a5.93379,5.93379 0 0 0 0.50277,-0.60323q0.23798,-0.32478 0.46717,-0.71442a10.69331,10.69331 0 0 0 0.15166,-0.26724q0.50277,-0.91435 0.79147,-2.17153a11.91391,11.91391 0 0 0 0.03755,-0.16922l6.97348,0zm4.92532,-6.77841l0.92655,-4.34014q2.48704,-1.21914 5.096,-1.77994q2.60896,-0.5608 5.82748,-0.5608q3.121,0 5.16915,0.48766a11.85247,11.85247 0 0 1 1.41957,0.42767q1.08601,0.40768 1.84773,0.98653a5.55098,5.55098 0 0 1 1.0626,1.04602a4.61176,4.61176 0 0 1 0.64419,1.14843a7.18804,7.18804 0 0 1 0.40719,1.62584a9.37079,9.37079 0 0 1 0.08046,1.25132a16.1887,16.1887 0 0 1 -0.04291,1.15184a20.35572,20.35572 0 0 1 -0.079,0.84755q-0.08388,0.73782 -0.17897,1.31374a14.96128,14.96128 0 0 1 -0.08924,0.49058l-2.29198,10.72842l-7.85126,0l-0.87778,-3.121l-0.29259,0q-1.5605,1.70679 -3.63303,2.60896q-2.07254,0.90216 -4.12069,0.90216q-1.17037,0 -2.29198,-0.34136q-1.12161,-0.34136 -1.99939,-1.04846a5.12672,5.12672 0 0 1 -1.26547,-1.51953a6.04595,6.04595 0 0 1 -0.14873,-0.28479a5.03017,5.03017 0 0 1 -0.41061,-1.25474q-0.12582,-0.64712 -0.12582,-1.40299q0,-2.44706 1.29424,-3.91783a4.76635,4.76635 0 0 1 0.09558,-0.10533a7.92684,7.92684 0 0 1 2.20225,-1.63706a10.39389,10.39389 0 0 1 1.45516,-0.60616a18.35048,18.35048 0 0 1 2.73624,-0.67296a24.09311,24.09311 0 0 1 2.38415,-0.27796q2.85279,-0.19506 5.72995,-0.19506q0.09753,-0.48766 0.24383,-1.38982a12.88971,12.88971 0 0 0 0.09753,-0.72222q0.03609,-0.34721 0.04535,-0.65443a6.84327,6.84327 0 0 0 0.00341,-0.20823q0,-0.87778 -0.46327,-1.63365q-0.45157,-0.73636 -1.85212,-0.75538a5.5149,5.5149 0 0 0 -0.07412,-0.00049a4.60054,4.60054 0 0 0 -0.95629,0.09265q-0.99579,0.21213 -1.55513,0.90704a4.97165,4.97165 0 0 0 -0.91192,1.80481a6.16592,6.16592 0 0 0 -0.13654,0.60908l-7.11977,0zm-92.06939,5.02285l-13.70312,0a20.74536,20.74536 0 0 0 -0.21067,1.42883a17.61802,17.61802 0 0 0 -0.05754,0.61932q-0.07315,0.97531 -0.07315,1.75556q0,0.43889 0.04877,0.97531a4.04023,4.04023 0 0 0 0.13752,0.74855a3.57403,3.57403 0 0 0 0.08193,0.25114a2.25199,2.25199 0 0 0 0.27065,0.52179a1.96818,1.96818 0 0 0 0.21701,0.25846q0.29211,0.29211 0.81146,0.31503a2.04669,2.04669 0 0 0 0.0907,0.00195a1.59463,1.59463 0 0 0 0.37696,-0.04828q0.28967,-0.07071 0.62274,-0.24432a4.30551,4.30551 0 0 0 0.59592,-0.37988a5.87332,5.87332 0 0 0 0.52569,-0.44913a6.63797,6.63797 0 0 0 0.59884,-0.6598a8.77341,8.77341 0 0 0 0.474,-0.65687a6.50581,6.50581 0 0 0 0.68711,-1.39665a7.5333,7.5333 0 0 0 0.11753,-0.35891l7.99755,0l-1.2679,5.21792a9.46149,9.46149 0 0 1 -1.33325,0.71637a11.77542,11.77542 0 0 1 -0.90997,0.35648q-1.2679,0.43889 -2.68211,0.7071q-1.4142,0.26821 -2.87717,0.39012a35.28969,35.28969 0 0 1 -1.94233,0.11021a29.95571,29.95571 0 0 1 -0.8373,0.0117a23.84295,23.84295 0 0 1 -2.89716,-0.16922a19.65447,19.65447 0 0 1 -1.63804,-0.26967a10.86302,10.86302 0 0 1 -2.24517,-0.71929a9.05186,9.05186 0 0 1 -1.41225,-0.79244a7.50648,7.50648 0 0 1 -2.44852,-2.82499a8.76805,8.76805 0 0 1 -0.01414,-0.0278a7.8337,7.8337 0 0 1 -0.66224,-1.92478q-0.23993,-1.13087 -0.23993,-2.48851q0,-2.38951 0.75587,-4.68149q0.75587,-2.29198 2.53581,-4.07192a10.72355,10.72355 0 0 1 2.19738,-1.66973q1.00847,-0.58763 2.22859,-1.05285a18.37633,18.37633 0 0 1 0.35306,-0.1302a16.48666,16.48666 0 0 1 2.68211,-0.69442q1.33715,-0.23651 2.87912,-0.32527a33.55315,33.55315 0 0 1 1.92429,-0.05315a25.40442,25.40442 0 0 1 2.5519,0.11948q2.6904,0.2726 4.3889,1.16598a6.90033,6.90033 0 0 1 0.39841,0.22627a4.91947,4.91947 0 0 1 2.3744,3.57208a7.27826,7.27826 0 0 1 0.08827,1.15818q0,1.31667 -0.39012,2.85279a8.71392,8.71392 0 0 1 -0.47839,1.40006a6.63212,6.63212 0 0 1 -0.69198,1.2089zm161.85291,9.80188l4.43767,-20.96919l7.94879,0l0.73148,3.65742l0.34136,0q1.12161,-1.75556 2.87717,-2.9747a6.37805,6.37805 0 0 1 2.0267,-0.91192q0.86218,-0.22822 1.87991,-0.28674a12.59371,12.59371 0 0 1 0.72612,-0.02048q0.19506,0 0.60957,0.02438a4.47375,4.47375 0 0 1 0.41012,0.04438q0.21408,0.03267 0.44864,0.08632a7.49575,7.49575 0 0 1 0.06778,0.0156a7.51721,7.51721 0 0 1 0.65931,0.19067a9.20352,9.20352 0 0 1 0.41353,0.15069q0.5608,0.21945 1.09723,0.60957l-2.14568,10.04571l-5.31545,0q-0.09753,-3.02346 -0.53642,-4.21822q-0.25114,-0.68369 -0.67784,-0.97629a1.27083,1.27083 0 0 0 -0.73636,-0.21847a2.49095,2.49095 0 0 0 -0.53886,0.06193q-0.24675,0.05462 -0.5096,0.15751q-0.39841,0.15605 -0.80951,0.57056a4.79853,4.79853 0 0 0 -0.33648,0.38037l-3.121,14.5809l-9.94818,0zm-232.31915,-17.7019l0.68272,-3.26729a31.23825,31.23825 0 0 0 1.49466,-0.35989q0.90704,-0.24334 1.6751,-0.51789a12.5464,12.5464 0 0 0 2.22127,-1.04017a11.51355,11.51355 0 0 0 0.29016,-0.17897q1.14599,-0.73148 2.19445,-1.80433a25.09037,25.09037 0 0 0 0.94995,-1.03188q0.632,-0.72368 1.31765,-1.60146l5.02285,0l-1.4142,6.53459l3.80371,0l-0.63395,3.26729l-3.85248,0l-1.99939,9.50929a52.00067,52.00067 0 0 0 -0.19457,0.93484q-0.08485,0.42816 -0.15264,0.81292a29.96937,29.96937 0 0 0 -0.04291,0.25163a16.5325,16.5325 0 0 0 -0.06388,0.41451q-0.06291,0.44816 -0.07802,0.76757a3.9861,3.9861 0 0 0 -0.00439,0.18336a2.04328,2.04328 0 0 0 0.04291,0.43596q0.13118,0.59933 0.66419,0.78317a2.92935,2.92935 0 0 0 0.42914,0.10631q0.69003,0.12435 1.95209,0.13606a29.09061,29.09061 0 0 0 0.2765,0.00146l-0.73148,3.36482a2.49631,2.49631 0 0 1 -0.22091,0.0512q-0.24432,0.04584 -0.59982,0.07705a11.92806,11.92806 0 0 1 -0.22774,0.01804q-0.7071,0.04877 -1.5605,0.12191q-0.8534,0.07315 -1.75556,0.09753a74.86831,74.86831 0 0 1 -0.74758,0.01658q-0.3399,0.00585 -0.64078,0.00731a40.87773,40.87773 0 0 1 -0.19653,0.00049q-1.21914,0 -2.38951,-0.17068a6.5419,6.5419 0 0 1 -1.35958,-0.3438a5.57195,5.57195 0 0 1 -0.73734,-0.33892a3.82322,3.82322 0 0 1 -1.4342,-1.39713a4.55714,4.55714 0 0 1 -0.05315,-0.09022a3.73057,3.73057 0 0 1 -0.3633,-0.90509q-0.11704,-0.44182 -0.16483,-0.968a8.43693,8.43693 0 0 1 -0.03267,-0.76026a12.108,12.108 0 0 1 0.00927,-0.4584q0.00878,-0.22091 0.02438,-0.47205a27.00344,27.00344 0 0 1 0.0395,-0.53252q0.07071,-0.84998 0.30186,-1.88284a19.46575,19.46575 0 0 1 0.01512,-0.06778l2.04815,-9.70435l-3.80371,0zm102.70028,0l0.68272,-3.26729a31.23825,31.23825 0 0 0 1.49466,-0.35989q0.90704,-0.24334 1.6751,-0.51789a12.5464,12.5464 0 0 0 2.22127,-1.04017a11.51355,11.51355 0 0 0 0.29016,-0.17897q1.14599,-0.73148 2.19445,-1.80433a25.09037,25.09037 0 0 0 0.94995,-1.03188q0.632,-0.72368 1.31765,-1.60146l5.02285,0l-1.4142,6.53459l3.80371,0l-0.63395,3.26729l-3.85248,0l-1.99939,9.50929a52.00067,52.00067 0 0 0 -0.19457,0.93484q-0.08485,0.42816 -0.15264,0.81292a29.96937,29.96937 0 0 0 -0.04291,0.25163a16.5325,16.5325 0 0 0 -0.06388,0.41451q-0.06291,0.44816 -0.07802,0.76757a3.9861,3.9861 0 0 0 -0.00439,0.18336a2.04328,2.04328 0 0 0 0.04291,0.43596q0.13118,0.59933 0.66419,0.78317a2.92935,2.92935 0 0 0 0.42914,0.10631q0.69003,0.12435 1.95209,0.13606a29.09061,29.09061 0 0 0 0.2765,0.00146l-0.73148,3.36482a2.49631,2.49631 0 0 1 -0.22091,0.0512q-0.24432,0.04584 -0.59982,0.07705a11.92806,11.92806 0 0 1 -0.22774,0.01804q-0.7071,0.04877 -1.5605,0.12191q-0.8534,0.07315 -1.75556,0.09753a74.86831,74.86831 0 0 1 -0.74758,0.01658q-0.3399,0.00585 -0.64078,0.00731a40.87773,40.87773 0 0 1 -0.19653,0.00049q-1.21914,0 -2.38951,-0.17068a6.5419,6.5419 0 0 1 -1.35958,-0.3438a5.57195,5.57195 0 0 1 -0.73734,-0.33892a3.82322,3.82322 0 0 1 -1.4342,-1.39713a4.55714,4.55714 0 0 1 -0.05315,-0.09022a3.73057,3.73057 0 0 1 -0.3633,-0.90509q-0.11704,-0.44182 -0.16483,-0.968a8.43693,8.43693 0 0 1 -0.03267,-0.76026a12.108,12.108 0 0 1 0.00927,-0.4584q0.00878,-0.22091 0.02438,-0.47205a27.00344,27.00344 0 0 1 0.0395,-0.53252q0.07071,-0.84998 0.30186,-1.88284a19.46575,19.46575 0 0 1 0.01512,-0.06778l2.04815,-9.70435l-3.80371,0zm84.94961,0l0.68272,-3.26729a31.23825,31.23825 0 0 0 1.49466,-0.35989q0.90704,-0.24334 1.6751,-0.51789a12.5464,12.5464 0 0 0 2.22127,-1.04017a11.51355,11.51355 0 0 0 0.29016,-0.17897q1.14599,-0.73148 2.19445,-1.80433a25.09037,25.09037 0 0 0 0.94995,-1.03188q0.632,-0.72368 1.31765,-1.60146l5.02285,0l-1.4142,6.53459l3.80371,0l-0.63395,3.26729l-3.85248,0l-1.99939,9.50929a52.00067,52.00067 0 0 0 -0.19457,0.93484q-0.08485,0.42816 -0.15264,0.81292a29.96937,29.96937 0 0 0 -0.04291,0.25163a16.5325,16.5325 0 0 0 -0.06388,0.41451q-0.06291,0.44816 -0.07802,0.76757a3.9861,3.9861 0 0 0 -0.00439,0.18336a2.04328,2.04328 0 0 0 0.04291,0.43596q0.13118,0.59933 0.66419,0.78317a2.92935,2.92935 0 0 0 0.42914,0.10631q0.69003,0.12435 1.95209,0.13606a29.09061,29.09061 0 0 0 0.2765,0.00146l-0.73148,3.36482a2.49631,2.49631 0 0 1 -0.22091,0.0512q-0.24432,0.04584 -0.59982,0.07705a11.92806,11.92806 0 0 1 -0.22774,0.01804q-0.7071,0.04877 -1.5605,0.12191q-0.8534,0.07315 -1.75556,0.09753a74.86831,74.86831 0 0 1 -0.74758,0.01658q-0.3399,0.00585 -0.64078,0.00731a40.87773,40.87773 0 0 1 -0.19653,0.00049q-1.21914,0 -2.38951,-0.17068a6.5419,6.5419 0 0 1 -1.35958,-0.3438a5.57195,5.57195 0 0 1 -0.73734,-0.33892a3.82322,3.82322 0 0 1 -1.4342,-1.39713a4.55714,4.55714 0 0 1 -0.05315,-0.09022a3.73057,3.73057 0 0 1 -0.3633,-0.90509q-0.11704,-0.44182 -0.16483,-0.968a8.43693,8.43693 0 0 1 -0.03267,-0.76026a12.108,12.108 0 0 1 0.00927,-0.4584q0.00878,-0.22091 0.02438,-0.47205a27.00344,27.00344 0 0 1 0.0395,-0.53252q0.07071,-0.84998 0.30186,-1.88284a19.46575,19.46575 0 0 1 0.01512,-0.06778l2.04815,-9.70435l-3.80371,0zm35.45305,-3.6462a26.05349,26.05349 0 0 0 -2.97519,-0.15751a28.05142,28.05142 0 0 0 -2.49582,0.10631q-1.98183,0.17702 -3.6384,0.64956a12.69075,12.69075 0 0 0 -3.61889,1.63365q-2.43828,1.70679 -3.73057,4.29137a11.83053,11.83053 0 0 0 -0.78805,2.02328a13.43101,13.43101 0 0 0 -0.50424,3.73105a15.55865,15.55865 0 0 0 0.01512,0.68711q0.18824,4.26699 2.76452,6.48143q2.58457,2.29198 8.58274,2.29198q3.84029,0 6.68868,-0.93337a11.9856,11.9856 0 0 0 4.03974,-2.18762a10.12324,10.12324 0 0 0 1.17623,-1.20744a11.27801,11.27801 0 0 0 1.70094,-2.86449a12.83558,12.83558 0 0 0 0.7349,-2.44267a15.90489,15.90489 0 0 0 0.28918,-3.09222q0,-2.33148 -0.61054,-4.04169a6.57165,6.57165 0 0 0 -2.16909,-3.07808a6.60871,6.60871 0 0 0 -0.52228,-0.36623q-1.84285,-1.16696 -4.93898,-1.52441zm-88.90011,0.37891l-4.5352,20.96919l-9.89941,0l4.43767,-20.96919l9.99694,0zm82.60887,18.04326q1.21914,0 2.1213,-1.36544q0.90216,-1.36544 1.43858,-3.34044q0.53642,-1.97501 0.80463,-4.09631q0.2053,-1.62389 0.25358,-2.91959a20.55566,20.55566 0 0 0 0.01463,-0.76221a11.26533,11.26533 0 0 0 -0.02146,-0.71588q-0.05413,-0.84852 -0.24675,-1.35666a1.05968,1.05968 0 0 0 -0.31844,-0.45791q-0.19653,-0.15946 -0.48083,-0.21701a1.75458,1.75458 0 0 0 -0.34672,-0.03219q-1.31667,0 -2.2676,1.4142a10.99761,10.99761 0 0 0 -0.95385,1.76092a14.44631,14.44631 0 0 0 -0.58226,1.6039q-0.58519,1.95062 -0.8534,3.99878q-0.26236,2.0028 -0.26821,3.25949a12.23333,12.23333 0 0 0 0,0.05657a8.79682,8.79682 0 0 0 0.05949,1.07479q0.13703,1.10259 0.58616,1.62487a1.33179,1.33179 0 0 0 1.06114,0.4701zm-262.50503,-21.65191l-5.9494,13.26423l7.07101,0l-1.12161,-13.26423zm181.06215,-1.79262a4.57665,4.57665 0 0 0 0.10192,-0.98702a4.72538,4.72538 0 0 0 -0.09314,-0.9641a2.98982,2.98982 0 0 0 -1.22353,-1.91307a4.90533,4.90533 0 0 0 -1.67266,-0.75099a6.48241,6.48241 0 0 0 -1.54587,-0.17556q-1.07284,0 -2.07254,0.29259a6.32343,6.32343 0 0 0 -0.45498,0.15166a5.31691,5.31691 0 0 0 -1.30058,0.70174q-0.75587,0.5608 -1.19476,1.4142a3.82176,3.82176 0 0 0 -0.29991,0.78854a4.50545,4.50545 0 0 0 -0.13898,1.1377a4.82291,4.82291 0 0 0 0.11606,1.09235a2.9786,2.9786 0 0 0 1.20061,1.83359a4.91801,4.91801 0 0 0 1.76044,0.76757a6.7906,6.7906 0 0 0 1.50686,0.15898q1.02408,0 1.99939,-0.29259a5.97183,5.97183 0 0 0 0.12094,-0.03755a5.23742,5.23742 0 0 0 1.61024,-0.84023q0.75587,-0.58519 1.21914,-1.4142a3.51453,3.51453 0 0 0 0.36135,-0.96361zm-78.11804,14.32537l5.55927,0q0.09753,-0.58519 0.19506,-1.21914q0.09753,-0.53642 0.17068,-1.17037q0.07315,-0.63395 0.07315,-1.17037a7.35433,7.35433 0 0 0 -0.02877,-0.67492q-0.08924,-0.96653 -0.45888,-1.37324a1.69314,1.69314 0 0 0 -0.47303,-0.37159a1.49369,1.49369 0 0 0 -0.69735,-0.16483a2.27101,2.27101 0 0 0 -1.35568,0.45011a2.83523,2.83523 0 0 0 -0.0829,0.06193a4.61712,4.61712 0 0 0 -0.70222,0.68418a6.18494,6.18494 0 0 0 -0.49253,0.68125a10.91763,10.91763 0 0 0 -0.57251,1.03724a13.87527,13.87527 0 0 0 -0.4028,0.91338a16.66612,16.66612 0 0 0 -0.69442,2.16422a18.29977,18.29977 0 0 0 -0.03706,0.15215zm116.64723,5.21792l0.78025,-3.75495l-0.87778,0a9.13964,9.13964 0 0 0 -1.08064,0.06047q-0.5491,0.06535 -1.01725,0.20189a4.94385,4.94385 0 0 0 -0.316,0.10338a5.59634,5.59634 0 0 0 -0.79342,0.35843q-0.42475,0.23554 -0.74709,0.52862a3.37604,3.37604 0 0 0 -0.06876,0.06388a3.84468,3.84468 0 0 0 -0.73295,0.95483a3.54916,3.54916 0 0 0 -0.16922,0.36184q-0.29259,0.73148 -0.29259,1.46297a3.57549,3.57549 0 0 0 0.05803,0.66663q0.1302,0.68418 0.55154,1.08894q0.60957,0.58519 1.43858,0.58519a3.06394,3.06394 0 0 0 1.30204,-0.3004a4.28015,4.28015 0 0 0 0.72173,-0.43109q0.99969,-0.73148 1.24352,-1.95062z"/>
   </g>
  </g>
 </g>

</svg>
